# xmcd
# 
# Track frame offsets:
#     150
#     22015
#     40033
#     52498
#     63180
#     91683
#     104870
#     134695
#     153418
#     173888
#     184050
#     201653
#     218860
# 
# Disc length: 3133
# 
# Revision: 4
# Processed by: cddbd v1.5.2PL0 Copyright (c) Steve Scherf et al.
# Submitted via: fre:ac v1.0.31
# 
DISCID=c70c3b0d
DTITLE=Strawbs - Bursting At The Seams
DYEAR=1973
DGENRE=Rock/Pop
TTITLE0=Flying
TTITLE1=Lady Fuschia
TTITLE2=Stormy Down
TTITLE3=The River
TTITLE4=Down By The Sea
TTITLE5=Part Of The Union
TTITLE6=Tears And Pavan
TTITLE7=The Winter And The Summer
TTITLE8=Lay Down
TTITLE9=Thank You
TTITLE10=Will You Go
TTITLE11=Backside
TTITLE12=Lay Down (Single Version)
EXTD=YEAR: 1973
EXTT0=
EXTT1=
EXTT2=
EXTT3=
EXTT4=
EXTT5=
EXTT6=
EXTT7=
EXTT8=
EXTT9=
EXTT10=
EXTT11=
EXTT12=
PLAYORDER=
